<svg xmlns="http://www.w3.org/2000/svg" viewBox="0 0 512 512">
  <defs>
    <linearGradient id="g" x1="0" y1="0" x2="1" y2="1">
      <stop offset="0" stop-color="#3b82f6"/>
      <stop offset="1" stop-color="#8b5cf6"/>
    </linearGradient>
  </defs>
  <rect width="512" height="512" rx="112" fill="url(#g)"/>
  <path fill="#fff" d="M368 128h-24v-16c0-11-9-20-20-20s-20 9-20 20v16H208v-16c0-11-9-20-20-20s-20 9-20 20v16h-24c-22.1 0-40 17.9-40 40v208c0 22.1 17.9 40 40 40h224c22.1 0 40-17.9 40-40V168c0-22.1-17.9-40-40-40zm-8 248c0 4.4-3.6 8-8 8H160c-4.4 0-8-3.6-8-8V216h208v160z"/>
  <rect x="200" y="256" width="40" height="40" rx="8" fill="#fff"/>
  <rect x="272" y="256" width="40" height="40" rx="8" fill="#fff"/>
  <rect x="200" y="328" width="40" height="40" rx="8" fill="#fff"/>
  <rect x="272" y="328" width="40" height="40" rx="8" fill="#fff"/>
</svg>